<?xml version="1.0" standalone="no"?>
<!-- Generator: Adobe Fireworks 10, Export SVG Extension by Aaron Beall (http://fireworks.abeall.com) . Version: 0.6.1  -->
<!DOCTYPE svg PUBLIC "-//W3C//DTD SVG 1.1//EN" "http://www.w3.org/Graphics/SVG/1.1/DTD/svg11.dtd">
<svg id="logo-zero.fw-P%E1gina%201" viewBox="0 0 150 35" style="background-color:#ffffff00" version="1.1"
	xmlns="http://www.w3.org/2000/svg" xmlns:xlink="http://www.w3.org/1999/xlink" xml:space="preserve"
	x="0px" y="0px" width="150px" height="35px"
>
	<g id="Capa%201">
		<path d="M 144.2498 15.9231 C 146.3061 15.9231 147.6693 17.6888 147.3458 19.8131 C 147.0223 21.9136 145.1046 23.7037 143.0483 23.7037 C 140.992 23.7037 139.6289 21.9136 139.9524 19.8131 C 140.2758 17.6888 142.1935 15.9231 144.2498 15.9231 L 144.2498 15.9231 ZM 144.5501 14.0817 C 141.3156 14.0817 138.3812 16.4476 137.873 19.8131 C 137.3638 23.1786 139.4904 25.5451 142.7249 25.5451 C 145.9595 25.5451 148.9169 23.1786 149.4252 19.8131 C 149.9355 16.4476 147.7848 14.0817 144.5501 14.0817 L 144.5501 14.0817 ZM 134.5032 14.4108 L 132.4128 14.4108 L 130.694 25.2787 L 132.7844 25.2787 L 133.6206 19.8537 C 133.8994 18.0611 134.5264 15.9388 136.7794 15.9388 C 137.2672 15.9388 137.662 16.0563 137.9871 16.3865 L 139.2411 14.5742 C 138.7769 14.2745 138.1962 14.0817 137.5924 14.0817 C 136.1987 14.0817 135.0142 14.8312 134.2941 16.0177 L 134.2244 16.0177 L 134.5032 14.4108 L 134.5032 14.4108 ZM 121.9716 18.7361 C 122.4927 17.0827 123.9136 15.8486 125.5715 15.8486 C 127.2767 15.8486 128.2001 17.0087 128.1761 18.7361 L 121.9716 18.7361 L 121.9716 18.7361 ZM 130.092 20.2639 L 130.1399 19.9494 C 130.6534 16.6385 129.3975 14.0152 125.8557 14.0152 C 122.2794 14.0152 120.1376 16.5892 119.6222 20.0168 C 119.1391 23.0824 120.6976 25.5451 124.032 25.5451 C 126.1873 25.5451 128.3199 24.4633 129.6849 22.6386 L 128.0346 21.6844 C 127.0161 22.9271 125.9977 23.7037 124.3636 23.7037 C 122.3268 23.7037 121.3473 22.0395 121.6163 20.2639 L 130.092 20.2639 L 130.092 20.2639 ZM 110.3623 23.3903 L 121.597 7.5 L 110.5007 7.5 L 110.2009 9.3413 L 117.7682 9.3413 L 106.5095 25.2316 L 118.8527 25.2316 L 119.1756 23.3903 L 110.3623 23.3903 L 110.3623 23.3903 ZM 100.3542 16.2365 L 102.389 16.2365 L 102.6893 14.3952 L 100.6548 14.3952 L 101.3023 10.1877 L 99.2212 10.1877 L 98.5737 14.3952 L 97.4407 14.3952 L 97.1401 16.2365 L 98.2731 16.2365 L 96.8625 25.2787 L 98.9437 25.2787 L 100.3542 16.2365 L 100.3542 16.2365 ZM 87.8605 18.7361 C 88.3814 17.0827 89.8025 15.8486 91.4604 15.8486 C 93.1655 15.8486 94.089 17.0087 94.0651 18.7361 L 87.8605 18.7361 L 87.8605 18.7361 ZM 95.981 20.2639 L 96.0288 19.9494 C 96.5424 16.6385 95.2864 14.0152 91.7446 14.0152 C 88.1683 14.0152 86.0265 16.5892 85.5111 20.0168 C 85.028 23.0824 86.5865 25.5451 89.9209 25.5451 C 92.0762 25.5451 94.2088 24.4633 95.5739 22.6386 L 93.9235 21.6844 C 92.905 22.9271 91.8867 23.7037 90.2525 23.7037 C 88.2158 23.7037 87.2362 22.0395 87.5052 20.2639 L 95.981 20.2639 L 95.981 20.2639 ZM 84.9581 14.3482 L 82.8744 14.3482 L 82.5735 16.246 L 82.5272 16.246 C 81.902 14.9103 80.7214 14.0817 79.1008 14.0817 C 75.9753 14.0817 73.5907 16.7755 73.1276 19.7217 C 72.6184 22.8061 74.0305 25.5451 77.3643 25.5451 C 78.8923 25.5451 80.351 24.7164 81.3928 23.4966 L 81.439 23.4966 L 81.0917 25.5451 C 80.7444 27.841 79.9341 29.6587 77.3643 29.6587 C 75.4659 29.6587 74.3084 28.5107 74.6093 26.5016 L 72.5257 26.5016 C 72.0859 29.6587 73.9843 31.5 76.994 31.5 C 81.2075 31.5 82.6893 28.7977 83.2679 24.9697 L 84.9581 14.3482 L 84.9581 14.3482 ZM 77.9894 23.7037 C 75.7901 23.7037 74.864 21.8163 75.1881 19.7908 C 75.5122 17.7882 77.0865 15.9231 79.2396 15.9231 C 81.4854 15.9231 82.4578 17.6962 82.1335 19.7908 C 81.7863 21.9084 80.2582 23.7037 77.9894 23.7037 L 77.9894 23.7037 ZM 69.7153 14.4108 L 67.6249 14.4108 L 65.9061 25.2787 L 67.9964 25.2787 L 68.8326 19.8537 C 69.1113 18.0611 69.7385 15.9388 71.9914 15.9388 C 72.4792 15.9388 72.8741 16.0563 73.1993 16.3865 L 74.4531 14.5742 C 73.9889 14.2745 73.4083 14.0817 72.8044 14.0817 C 71.4108 14.0817 70.2262 14.8312 69.5062 16.0177 L 69.4365 16.0177 L 69.7153 14.4108 L 69.7153 14.4108 ZM 65.1242 14.3482 L 63.0406 14.3482 L 62.7628 16.2 L 62.7164 16.2 C 62.0682 14.9103 60.8875 14.0817 59.2901 14.0817 C 56.1415 14.0817 53.7569 16.7755 53.2938 19.7217 C 52.7845 22.8061 54.2199 25.5451 57.5305 25.5451 C 59.0817 25.5451 60.517 24.7164 61.5588 23.4966 L 61.6052 23.4966 L 61.3273 25.2982 L 63.4109 25.2982 L 65.1242 14.3482 L 65.1242 14.3482 ZM 58.1557 23.7037 C 55.9563 23.7037 55.0302 21.8163 55.3543 19.7908 C 55.6784 17.7882 57.2528 15.9231 59.4058 15.9231 C 61.6516 15.9231 62.6238 17.6962 62.2997 19.7908 C 61.9525 21.9084 60.4244 23.7037 58.1557 23.7037 L 58.1557 23.7037 ZM 50.8203 9.3413 L 54.9645 9.3413 L 55.2654 7.5 L 44.801 7.5 L 44.5 9.3413 L 48.644 9.3413 L 46.19 25.2787 L 48.3663 25.2787 L 50.8203 9.3413 L 50.8203 9.3413 Z" fill="#ffffff"/>
		<path d="M 19.3155 14.8569 L 18.8721 17.6254 L 19.1061 17.6254 C 20.1038 17.6254 20.8551 17.3326 21.0399 16.2103 C 21.2246 15.0759 20.5226 14.8569 19.5619 14.8569 L 19.3155 14.8569 ZM 30.6089 17.8804 C 30.8366 16.4322 30.0742 14.9722 28.3458 14.9722 C 26.6174 14.9722 25.3491 16.4322 25.1128 17.8804 C 24.8855 19.2575 25.3242 20.955 27.3511 20.955 C 29.3779 20.955 30.3727 19.2575 30.6089 17.8804 ZM 0.5 17.5 C 0.5 26.8889 8.1111 34.5 17.5 34.5 C 26.8889 34.5 34.5 26.8889 34.5 17.5 C 34.5 8.111 26.8889 0.5 17.5 0.5 C 8.1111 0.5 0.5 8.111 0.5 17.5 ZM 5.6711 21.0704 L 9.541 21.0704 L 9.2937 22.5965 L 2.5306 22.5965 L 7.8595 14.8569 L 4.3852 14.8569 L 4.6325 13.3308 L 10.9875 13.3308 L 5.6711 21.0704 ZM 16.3039 14.8569 L 13.2994 14.8569 L 12.978 16.8915 L 15.8711 16.8915 L 15.6239 18.4176 L 12.7307 18.4176 L 12.3227 21.0704 L 15.3271 21.0704 L 15.0799 22.5965 L 10.2579 22.5965 L 11.7292 13.3308 L 16.5512 13.3308 L 16.3039 14.8569 ZM 20.5472 18.7111 L 22.5549 22.5903 L 20.3625 22.5903 L 18.6997 18.8819 L 18.6751 18.8819 L 18.0839 22.5903 L 16.2733 22.5903 L 17.739 13.3308 L 20.19 13.3308 C 22.0252 13.3308 23.1714 14.1702 22.8504 16.1616 C 22.6657 17.3326 21.8281 18.5037 20.5472 18.7111 ZM 32.4095 17.9517 C 31.9925 20.587 29.925 22.7613 27.065 22.7613 C 24.2461 22.7613 22.8693 20.587 23.2989 17.9517 C 23.7133 15.2925 25.834 13.166 28.6318 13.166 C 31.3967 13.166 32.8398 15.2925 32.4095 17.9517 Z" fill="#ffffff"/>
	</g>
</svg>